<?xml version="1.0" encoding="UTF-8"?>
<svg width="1024px" height="1024px" viewBox="0 0 1024 1024" 
version="1.1" xmlns="http://www.w3.org/2000/svg" xmlns:xlink="http://www.w3.org/1999/xlink">
<title>MixDAO徽章模版02</title>
    <defs>
        <filter x="-8.8%" y="-8.8%" width="117.6%" height="117.6%" filterUnits="objectBoundingBox" id="filter-1">
            <feGaussianBlur stdDeviation="23" in="SourceGraphic"></feGaussianBlur>
        </filter>
        <radialGradient cx="21.9755407%" cy="19.9105825%" fx="21.9755407%" fy="19.9105825%" r="133.941434%" id="radialGradient-2">
            <stop stop-color="#FFFFFF" stop-opacity="0" offset="0%"></stop>
            <stop stop-color="#000000" offset="100%"></stop>
        </radialGradient>
    </defs>
    <g id="01" stroke="none" stroke-width="1" fill="none" fill-rule="evenodd">

        <g id="img"  x="120" y="120" width="780" height="780">
        <path d="M311,599 L311,412 L280,412 L280,599 L311,599 Z M377.668414,599 L377.668414,470.142857 L378.716907,470.142857 L433.762779,599 L460.237221,599 L515.283093,470.142857 L516.331586,470.142857 L516.331586,599 L547,599 L547,412 L511.089122,412 L447.655308,558.666667 L446.606815,558.666667 L382.910878,412 L347,412 L347,599 L377.668414,599 Z M667.554878,602 C684.335366,602 699.280488,599.908356 712.914634,595.725067 C725.762195,591.541779 737.036585,585.789757 747,577.946092 L747,498.986523 L666.768293,498.986523 L666.768293,525.132075 L716.323171,525.132075 L716.323171,563.566038 C710.030488,567.226415 703.47561,570.102426 696.134146,572.19407 C688.268293,574.285714 679.878049,575.331536 670.963415,575.331536 C648.152439,575.331536 631.371951,569.056604 620.621951,556.506739 C610.658537,544.74124 605.676829,527.746631 605.676829,505.784367 C605.676829,482.77628 611.182927,465.25876 622.457317,452.708895 C632.682927,440.681941 646.579268,434.929919 664.146341,434.929919 C678.304878,434.929919 689.841463,437.80593 698.493902,443.819407 C706.884146,449.832884 712.652439,458.722372 715.27439,470.749326 L746.213415,470.749326 C742.804878,449.832884 734.414634,434.407008 721.042683,423.948787 C707.146341,413.229111 688.268293,408 664.146341,408 C636.353659,408 614.329268,417.412399 598.073171,436.760108 C582.603659,454.800539 575,477.808625 575,505.784367 C575,533.498652 582.603659,556.245283 598.073171,573.762803 C614.591463,592.587601 637.664634,602 667.554878,602 Z" 
        fill="#c1c1c1"></path>
        </g> 
    
        <circle id="board" stroke="rgba(0,0,0,0.6)" stroke-width="100" cx="512" cy="512" r="350"></circle>
        <circle id="board2" stroke="#000000" stroke-width="4" cx="512" cy="512" r="300" opacity="0.6"></circle>
        <path stroke="none" 
        d="m511.285742,875.571469c200.400479,0 362.857165,-162.456687 362.857165,-362.857165c0,-200.400479 -162.456687,-362.857165 -362.857165,-362.857165c-200.400479,0 -362.857165,162.456687 -362.857165,362.857165c0,200.400479 162.456687,362.857165 362.857165,362.857165z" id="circle-path" ></path> 

        <text>
            <textPath xlink:href="#circle-path"  id="nft-text" 
            spacing='auto'
            lengthAdjust='spacingAndGlyphs'
            font-family="PingFangSC-Semibold, PingFang SC" 
                font-size="56" 
                font-weight="500" 
                fill="#FFFFFF"
                >MIXDAO</textPath>
            </text>  
        
            <path d="M0,0 L1024,0 L1024,1024 L0,1024 L0,0 Z M512,912 C732.9139,912 912,732.9139 912,512 C912,291.0861 732.9139,112 512,112 C291.0861,112 112,291.0861 112,512 C112,732.9139 291.0861,912 512,912 Z" id="mask" fill="#000000"></path>
            
            <circle id="board-01" stroke="#FFFFFF" stroke-width="8" cx="512" cy="512" r="390"></circle>
            <circle id="color-stroke" stroke="#FF760F" stroke-width="20" opacity="0.7" filter="url(#filter-1)" cx="512" cy="512" r="410"></circle>
            <rect id="light" fill="url(#radialGradient-2)" opacity="0.902189367" style="mix-blend-mode: hard-light;" x="0" y="0" width="1024" height="1024"></rect> 
    </g>
</svg>