<?xml version="1.0" encoding="UTF-8"?>
<svg width="1024px" height="1024px" viewBox="0 0 1024 1024" version="1.1" 
xmlns="http://www.w3.org/2000/svg" xmlns:xlink="http://www.w3.org/1999/xlink">
     <title>MixDAO徽章模版02</title>
    <g id="02" stroke="none" stroke-width="1" fill="none" fill-rule="evenodd">
         <g id="img" fill="#FFCACA" x="0" y="0" width="1024" height="1024">
            <path d="M1024,0 L1024,1024 L0,1024 L0,0 L1024,0 Z M662.146341,353 C634.353659,353 612.329268,362.412399 596.073171,381.760108 C580.603659,399.800539 573,422.808625 573,450.784367 C573,478.498652 580.603659,501.245283 596.073171,518.762803 C612.591463,537.587601 635.664634,547 665.554878,547 C682.335366,547 697.280488,544.908356 710.914634,540.725067 C723.762195,536.541779 735.036585,530.789757 745,522.946092 L745,443.986523 L664.768293,443.986523 L664.768293,470.132075 L714.323171,470.132075 L714.323171,508.566038 C708.030488,512.226415 701.47561,515.102426 694.134146,517.19407 C686.268293,519.285714 677.878049,520.331536 668.963415,520.331536 C646.152439,520.331536 629.371951,514.056604 618.621951,501.506739 C608.658537,489.74124 603.676829,472.746631 603.676829,450.784367 C603.676829,427.77628 609.182927,410.25876 620.457317,397.708895 C630.682927,385.681941 644.579268,379.929919 662.146341,379.929919 C676.304878,379.929919 687.841463,382.80593 696.493902,388.819407 C704.884146,394.832884 710.652439,403.722372 713.27439,415.749326 L744.213415,415.749326 C740.804878,394.832884 732.414634,379.407008 719.042683,368.948787 C705.146341,358.229111 686.268293,353 662.146341,353 Z M309,357 L278,357 L278,544 L309,544 L309,357 Z M380.910878,357 L345,357 L345,544 L375.668414,544 L375.668414,415.142857 L376.716907,415.142857 L431.762779,544 L458.237221,544 L513.283093,415.142857 L514.331586,415.142857 L514.331586,544 L545,544 L545,357 L509.089122,357 L445.655308,503.666667 L444.606815,503.666667 L380.910878,357 Z" id="形状结合"></path>
        </g>

        <rect id="bg" fill="#000000" x="0" y="884" width="1024" height="148"></rect>
        <text font-family="PingFangSC-Semibold, PingFang SC" 
        font-size="60" font-weight="500" fill="#FFFFFF">
            <tspan x="65" y="958" id="nft-text">无限可能</tspan>
        </text>
        <text id="MixDAO-Achievements" font-family="PingFangSC-Light, PingFang SC" font-size="24" font-weight="300" fill="#FFFFFF">
            <tspan x="65" y="996">MixDAO Achievements</tspan>
        </text>
        <line x1="334.5" y1="987.5" x2="512" y2="987" id="color-stroke" stroke="#FFFFFF" stroke-width="4" stroke-linecap="square"></line>
    </g>
</svg>